# xmcd
#
# Track frame offsets: 
#        150
#        14806
#        31301
#        46839
#        60565
#        75059
#        91112
#        110539
#        121300
#        132403
#        148380
#        168057
#        177940
#
# Disc length: 2614 seconds
#
# Revision: 0
# Processed by: cddbd v1.5.2PL0 Copyright (c) Steve Scherf et al.
# Submitted via: ExactAudioCopy v1.0b3
#
DISCID=a30a340d
DTITLE=Blood Sweat and Kiers - Do the Murphy Shuffle
DYEAR=2009
DGENRE=Blues
TTITLE0=These Boots are made for Walking
TTITLE1=You Knock Me Out
TTITLE2=Misirlou
TTITLE3=Wasn't That Good
TTITLE4=Boulevard of Broken Dreams
TTITLE5=Two Hot Lips and Seven Kisses
TTITLE6=La vie en Rose
TTITLE7=Be Good or Be Gone
TTITLE8=Down Yonder
TTITLE9=Sad
TTITLE10=Murphy Shuffle
TTITLE11=I'LL Do Anything But Work
TTITLE12=Eat That Chicken
EXTD=
EXTT0=
EXTT1=
EXTT2=
EXTT3=
EXTT4=
EXTT5=
EXTT6=
EXTT7=
EXTT8=
EXTT9=
EXTT10=
EXTT11=
EXTT12=
PLAYORDER=
